<svg xmlns="http://www.w3.org/2000/svg" width="47" height="47" viewBox="0 0 47 47">
  <defs>
    <style>
      .cls-1 {
        fill: #9e9e9e;
        fill-rule: evenodd;
      }
    </style>
  </defs>
  <path class="cls-1" d="M575.5,977.99h-1a2.5,2.5,0,0,1-2.5-2.5v-1a2.5,2.5,0,0,1,2.5-2.5h1a2.5,2.5,0,0,1,2.5,2.5v1A2.5,2.5,0,0,1,575.5,977.99Zm-1-5a1.5,1.5,0,0,0-1.5,1.5v1a1.5,1.5,0,0,0,1.5,1.5h1a1.5,1.5,0,0,0,1.5-1.5v-1a1.5,1.5,0,0,0-1.5-1.5h-1Zm22.51,3h-16v-2h16v2ZM575.5,988h-1a2.5,2.5,0,0,1-2.5-2.5v-1a2.5,2.5,0,0,1,2.5-2.5h1a2.5,2.5,0,0,1,2.5,2.5v1A2.5,2.5,0,0,1,575.5,988Zm-1-5a1.5,1.5,0,0,0-1.5,1.5v1a1.5,1.5,0,0,0,1.5,1.5h1a1.5,1.5,0,0,0,1.5-1.5v-1a1.5,1.5,0,0,0-1.5-1.5h-1Zm22.51,3h-16v-2h16v2ZM575.5,998h-1a2.5,2.5,0,0,1-2.5-2.5v-1a2.5,2.5,0,0,1,2.5-2.5h1a2.5,2.5,0,0,1,2.5,2.5v1A2.5,2.5,0,0,1,575.5,998Zm-1-5a1.5,1.5,0,0,0-1.5,1.5v1a1.5,1.5,0,0,0,1.5,1.5h1a1.5,1.5,0,0,0,1.5-1.5v-1a1.5,1.5,0,0,0-1.5-1.5h-1Zm22.51,3h-16v-2h16v2ZM584.5,1008A23.5,23.5,0,1,1,608,984.5,23.527,23.527,0,0,1,584.5,1008Zm0-46A22.5,22.5,0,1,0,607,984.5,22.526,22.526,0,0,0,584.5,962Z" transform="translate(-561 -961)"/>
</svg>
